<svg xmlns="http://www.w3.org/2000/svg" width="27.854" height="26.114" viewBox="0 0 27.854 26.114">
  <path id="camera" d="M24.373,26.114H3.482a3.356,3.356,0,0,1-2.462-1.02A3.351,3.351,0,0,1,0,22.632V8.7A3.356,3.356,0,0,1,1.02,6.242a3.351,3.351,0,0,1,2.462-1.02h2.53L7.155,2.666a3.225,3.225,0,0,1,1.5-1.9A4.864,4.864,0,0,1,11.317,0h5.223A4.864,4.864,0,0,1,19.2.761a3.106,3.106,0,0,1,1.469,1.9l1.17,2.557h2.53A3.48,3.48,0,0,1,27.854,8.7V22.632a3.482,3.482,0,0,1-3.482,3.482ZM13.927,6.964a8.492,8.492,0,0,0-4.366,1.17A8.7,8.7,0,0,0,6.393,11.3a8.733,8.733,0,0,0,0,8.732A8.721,8.721,0,0,0,9.561,23.2a8.733,8.733,0,0,0,8.732,0,8.721,8.721,0,0,0,3.168-3.168,8.733,8.733,0,0,0,0-8.732,8.7,8.7,0,0,0-3.168-3.168A8.492,8.492,0,0,0,13.927,6.964Zm0,15.668A6.707,6.707,0,0,1,9,20.591a6.713,6.713,0,0,1-2.04-4.923A6.705,6.705,0,0,1,9,10.745,6.711,6.711,0,0,1,13.927,8.7a6.711,6.711,0,0,1,4.923,2.04,6.705,6.705,0,0,1,2.04,4.923,6.713,6.713,0,0,1-2.04,4.923A6.707,6.707,0,0,1,13.927,22.632Zm0-12.186A5.2,5.2,0,0,0,8.7,15.668a5.2,5.2,0,0,0,5.223,5.223,5.2,5.2,0,0,0,5.223-5.223,5.2,5.2,0,0,0-5.223-5.223Z" fill="#fd8f00"/>
</svg>
