<svg xmlns="http://www.w3.org/2000/svg" width="26.667" height="25" viewBox="0 0 26.667 25">
  <g id="image-gallery-solid" transform="translate(-2 -2)">
    <path id="Path_13135" data-name="Path 13135" d="M26.14,2.833A.833.833,0,0,0,25.307,2H6.973a.833.833,0,0,0-.833.833v.833h20Z" transform="translate(-0.69)" fill="#1da1f2"/>
    <path id="Path_13136" data-name="Path 13136" d="M27.453,6.833A.833.833,0,0,0,26.62,6H4.953a.833.833,0,0,0-.833.833v.833H27.453Z" transform="translate(-0.353 -0.667)" fill="#1da1f2"/>
    <path id="Path_13137" data-name="Path 13137" d="M27.1,10H3.567A1.567,1.567,0,0,0,2,11.567v15.2a1.567,1.567,0,0,0,1.567,1.567H27.1a1.567,1.567,0,0,0,1.567-1.567v-15.2A1.567,1.567,0,0,0,27.1,10ZM7.467,12.875a2.5,2.5,0,1,1-2.5,2.5,2.5,2.5,0,0,1,2.5-2.5ZM25.333,25h-20l6.217-6.225a.592.592,0,0,1,.833,0l3.067,3.067L19.675,17.5a.592.592,0,0,1,.833,0l4.825,4.825Z" transform="translate(0 -1.333)" fill="#1da1f2"/>
  </g>
</svg>
